PathFileType	4	(X/Y/Z)	/home/abdul/Desktop/myosuite/custom_workspace/IK/output/S3_12_3.trc
DataRate	CameraRate	NumFrames	NumMarkers	Units	OrigDataRate	OrigDataStartFrame	OrigNumFrames
200.0	200.0	67	3	mm	200.0	418	1113
Frame#	Time	V_Shoulder			V_Elbow			V_Wrist		
		X1	Y1	Z1	X2	Y2	Z2	X3	Y3	Z3

418	2.085	-120.47118880435795	673.1732599429561	324.56510481548565	-354.3004161446065	449.1642174197972	164.76631004263373	-121.38343030723742	424.87351201065167	336.51290002753626
419	2.09	-120.45675926628512	673.2094857883773	324.6195902303464	-354.24048913924287	448.9654435710349	165.13605709612654	-121.33331702866093	425.03434789193375	336.9481370173143
420	2.095	-120.44185070302194	673.2455067801649	324.67456887262307	-354.17862545061655	448.7631234146079	165.51000046988844	-121.28327412374766	425.1947042179871	337.39051964968775
421	2.1	-120.42646316615787	673.2813833132469	324.7299930542527	-354.11498983206275	448.55767963057974	165.88781383084748	-121.23328031254664	425.3542448386115	337.83933274309777
422	2.105	-120.41059706002817	673.3171737605718	324.78581525870254	-354.04975252235937	448.34953860874396	166.26916696008405	-121.18331185832027	425.51264092206486	338.29384992157156
423	2.11	-120.39425314537066	673.3529343556138	324.8419882119254	-353.98308854555546	448.13912914682646	166.65372638585046	-121.13334270501844	425.66957325695023	338.7533357786694
424	2.115	-120.37743254470178	673.3887190824563	324.8984649501567	-353.9151769929166	447.9268811515228	167.04115600945903	-121.08334462201283	425.8247344183103	339.21704804108947
425	2.12	-120.36013674931417	673.4245795737645	324.95519888458693	-353.84620029027917	447.71322434705945	167.4311177236735	-121.03328735563285	425.97783078706993	339.68423972576693
426	2.125	-120.34236762778751	673.460565016913	325.0121438629546	-353.7763434541552	447.49858699588	167.8232720232551	-120.98313878700552	426.12858441313136	340.15416128435015
427	2.13	-120.32412743589391	673.4967220684927	325.0692542281148	-353.7057933399636	447.28339463595495	168.21727860732233	-120.9328650956623	426.2767347136318	340.6260627289996
428	2.135	-120.30541882777084	673.5330947773783	325.1264848736518	-353.63473788577755	447.0680688390918	168.61279697318992	-120.88243092833663	426.42203999911305	341.0991957335336
429	2.14	-120.28624486822538	673.5697245164953	325.18379129660764	-353.56336535497866	446.8530259944831	169.00948700134865	-120.83179957233821	426.5642788216111	341.5728157040355
430	2.145	-120.26660904602659	673.6066499233832	325.2411296474104	-353.4918635811941	446.6386761215797	169.40700953124338	-120.78093313285268	426.7032511399481	342.0461838131476
431	2.15	-120.24651528803527	673.6439068496071	325.2984567770908	-353.4204192188598	446.4254217162061	169.80502692749428	-120.72979271348152	426.8387792987844	342.5185689923942
432	2.155	-120.22596797401559	673.681528319033	325.35573028188105	-353.3492170027069	446.2136566336565	170.2032036361927	-120.67833859930474	426.97070881926055	342.9892498770187
433	2.16	-120.20497195196678	673.7195444949375	325.41290854529365	-353.27843901940537	446.0037650123168	170.60120673088394	-120.62653044172058	427.0989090003148	343.4575166979671
434	2.165	-120.18353255380991	673.7579826558904	325.4699507777813	-353.2082639945264	445.7961202411551	170.99870644782843	-120.57432744429215	427.2232733309967	343.92267311581986
435	2.17	-120.16165561126104	673.7968671803011	325.5268170540822	-353.1388665978898	445.5910839742105	171.39537671010947	-120.5216885488123	427.3437197153011	344.3840379916557
436	2.175	-120.13934747171986	673.8362195394965	325.58346834835265	-353.0704167702628	445.38900519499003	171.79089564012997	-120.46857262078281	427.4601905122138	344.8409470900291
437	2.18	-120.1166150140018	673.8760582991523	325.6398665671938	-353.00307907425963	445.1902193334548	172.18494606001434	-120.41493863349656	427.57265239477874	345.29275470945527
438	2.185	-120.09346566374093	673.9163991288777	325.69597458067284	-352.9370120721619	444.99504743804334	172.57721597940457	-120.36074584990952	427.68109603306925	345.73883523602797
439	2.19	-120.06990740829163	673.9572548197167	325.75175625144243	-352.87236773324116	444.8037954049395	172.96739907011252	-120.30595400149431	427.78553560695696	346.1785846160375
440	2.195	-120.04594881095863	673.9986353093059	325.8071764620539	-352.8092908730133	444.6167532665526	173.35519512706298	-120.2505234632793	427.88600815552303	346.61142174371844
441	2.2	-120.02159902438723	674.0405477144018	325.8622011405626	-352.7479186266944	444.4341945409295	173.74031051493813	-120.1944154242965	427.98257277084116	347.0367897605319
442	2.205	-119.99686780294888	674.0829963704667	325.9167972845133	-352.68837995895535	444.2563756435725	174.12245859990878	-120.13759205268889	428.0753096446732	347.4541572626786
443	2.21	-119.9717655139615	674.1259828779865	325.97093298339365	-352.6307952118983	444.0835353628904	174.50136016581735	-120.08001665476178	428.1643189773589	347.8630194138455
444	2.215	-119.94630314758871	674.1695061551724	326.02457743963635	-352.575275692987	443.9158944002606	174.8767438141586	-120.02165382730493	428.24971975884387	348.26289896051003
445	2.22	-119.92049232526803	674.2135624966818	326.07770098824454	-352.5219233044719	443.75365497543356	175.2483463471881	-119.96246960256086	428.3316484323718	348.6533471474606
446	2.225	-119.89434530652477	674.2581456379876	326.1302751151099	-352.4708302156536	443.59700049777007	175.61591313347787	-119.90243158527028	428.410257451876	349.0339445315395
447	2.23	-119.8678749940352	674.3032468250076	326.1822724740866	-352.42207857912143	443.4460953035539	175.97919845523137	-119.84150908128791	428.4857137445217	349.404301691976
448	2.235	-119.84109493681142	674.3488548886062	326.2336669028754	-352.3757402918963	443.30108445939095	176.33796583666646	-119.7796732173293	428.55819709019977	349.76405983604695
449	2.24	-119.81401933138795	674.394956323568	326.2844334377704	-352.3318768021968	443.1620936314674	176.6919883527787	-119.71689705148219	428.62789843002867	350.1128912991844
450	2.245	-119.78666302090043	674.4415353716449	326.334548327307	-352.290538962332	443.02922902021214	177.04104891780483	-119.65315567419216	428.69501811610576	350.4504999390371
451	2.25	-119.75904149195533	674.4885741082795	326.383989044849	-352.25176692801136	442.9025773596853	177.38494055271957	-119.58842629951282	428.7597641148516	350.776621423389
452	2.255	-119.7311708692015	674.5360525326037	326.43273430014295	-352.2155901041444	442.782205980798	177.72346663112108	-119.52268834649283	428.8223501763184	351.0910234122367
453	2.26	-119.70306790752399	674.5839486603237	326.48076404986136	-352.18202713699145	442.6681629372549	178.05644110288296	-119.45592351065548	428.88299398178447	351.3935056347324
454	2.265	-119.6747499817922	674.6322386191019	326.5280595071508	-352.1510859523114	442.56047719291263	178.38368869498697	-119.38811582561034	428.9419152818381	351.68389986209695
455	2.27	-119.64623507410613	674.6808967460597	326.57460315019404	-352.12276383894266	442.45915886904663	178.7050450889867	-119.31925171491918	428.9993340369654	351.9620697780151
456	2.275	-119.61754175849633	674.7298956870314	326.62037872978925	-352.09704757705026	442.36419954983535	179.02035707459947	-119.24932003441876	429.05546857240415	352.2279107484167
457	2.28	-119.58868918304496	674.7792064972144	326.6653712759442	-352.073913610067	442.2755726441894	179.32948267897513	-119.17831210528098	429.1105337587079	352.48134949294155
458	2.285	-119.55969704940826	674.8287987428722	326.7095671034786	-352.0533282591623	442.1932338018843	179.63229127124833	-119.10622173816452	429.1647392290928	352.7223436607667
459	2.29	-119.53058558973191	674.8786406037617	326.75295381662085	-352.03524797888554	442.1171213817944	179.92866364204647	-119.03304524887946	429.2182876442112	352.9508813138475
460	2.295	-119.50137554096496	674.9286989759712	326.7955203125851	-352.01961965244607	442.04715696987654	180.21849205769425	-118.95878146605008	429.2713730145192	353.1669803209814
461	2.3	-119.47208811658867	674.9789395748754	326.8372567841061	-352.0063809249218	441.9832459444069	180.50168028893341	-118.88343173131545	429.3241790898826	353.3706876664463
462	2.305	-119.44274497579055	675.0293270379262	326.8781547209101	-351.9954605725255	441.92527808584856	180.77814361405592	-118.80699989265591	429.3768778255018	353.56207867729245
463	2.31	-119.41336819012554	675.0798250270217	326.9182069100947	-351.9867789059018	441.87312822860383	181.04780879643675	-118.72949229147324	429.42962793263837	353.74125617367025
464	2.315	-119.38398020771837	675.1303963302101	326.95740743538886	-351.9802482052915	441.8266569517973	181.31061403654076	-118.65091774408383	429.482573521992	353.90834954686363
465	2.32	-119.35460381507387	675.181002962507	326.9957516752647	-351.97577318526294	441.7857113061366	181.56650889857445	-118.5712875183057	429.53584284692124	354.0635137699571
466	2.325	-119.32526209657357	675.2316062656217	327.03323629986784	-351.9732514865997	441.7501255738106	181.81545421204868	-118.490615305834	429.58954715301763	354.2069283463032
467	2.33	-119.29597839174852	675.2821670064108	327.06985926673593	-351.97257419282255	441.71972205830826	182.05742194861975	-118.40891719110272	429.6437796398454	354.3387962011641
468	2.335	-119.26677625042971	675.3326454738914	327.1056198152732	-351.97362636873686	441.69431190097634	182.29239507467622	-118.32621161732462	429.6986145399461	354.4593425220859
469	2.34	-119.23767938588861	675.3830015746706	327.1405184599493	-351.9762876183179	441.67369592108093	182.52036738024316	-118.24251935038683	429.7541063194868	354.56881355371314
470	2.345	-119.2087116260907	675.4331949266603	327.1745569821923	-351.98043265918176	441.65766547609644	182.74134328487602	-118.15786344125519	429.81028900420176	354.6674753528768
471	2.35	-119.1798968631955	675.4831849509715	327.20773842094627	-351.9859319108447	441.6460033389152	182.9553376213197	-118.07226918750848	429.8671756335504	354.75561250988017
472	2.355	-119.15125900144606	675.5329309618922	327.2400670618671	-351.99265209393604	441.63848458865164	183.1623753978083	-117.98576409458245	429.92475784529154	354.8335268419656
473	2.36	-119.12282190360061	675.5823922548749	327.2715484251291	-352.00045683751307	441.63487751170874	183.3624915399787	-117.89837783725572	429.983005591953	354.90153606497654
474	2.365	-119.09460933606731	675.6315281924725	327.3021892518223	-352.0092072916226	441.63494450977936	183.55573061346664	-117.81014222185442	430.0418669899699	354.9599724492252
475	2.37	-119.06664491291211	675.6802982881758	327.33199748891906	-352.0187627422625	441.6384430114703	183.74214652834428	-117.72109114959117	430.10126830156895	355.00918146553965
476	2.375	-119.03895203891676	675.7286622881214	327.3609822727941	-352.02898122592495	441.64512638426663	183.92180222664328	-117.6312605813871	430.1611140487985	355.04952042740035
477	2.38	-119.01155385187151	675.7765802506509	327.38915391128415	-352.0397201409379	441.6547448435901	184.09476935428904	-117.5406885044547	430.2212872584453	355.0813571349745
478	2.385	-118.98447316429343	675.824012623711	327.41652386427825	-352.0508368528803	441.66704635575854	184.26112791884276	-117.44941490084443	430.2816498359425	355.1050685267329
479	2.39	-118.95773240476724	675.8709203200988	327.4431047228325	-352.06218929140886	441.68177753171227	184.42096593451546	-117.35748171807975	430.34204306575964	355.12103934417223
480	2.395	-118.93135355911028	675.9172647905597	327.4689101868082	-352.0736365359166	441.6986845084473	184.57437905597584	-117.26493284192716	430.4022882351786	355.1296608149819
481	2.4	-118.90535811156866	675.9630080947612	327.49395504103444	-352.0850393875353	441.71751381517555	184.72147020252177	-117.17181407126662	430.4621873778045	355.1313293597804
482	2.405	-118.87976698625464	676.0081129701639	327.51825513000296	-352.0962609250961	441.73801322132977	184.86234917422576	-117.0781730949488	430.52152413262604	355.1264453273062
483	2.41	-118.85460048903833	676.0525428988203	327.54182733110446	-352.1071670427803	441.75993256362716	184.99713226169473	-116.98405947044648	430.58006471394856	355.11541176268656
484	2.415	-118.82987825010981	676.0962621721387	327.5646895264218	-352.11762696731387	441.78302454952484	185.125941851103	-116.88952460403189	430.6375589870542	355.0986332131208
